<svg width="40" height="40" viewBox="0 0 40 40" fill="none" xmlns="http://www.w3.org/2000/svg">
<path fill-rule="evenodd" clip-rule="evenodd" d="M27.9994 31.9998C34.5605 31.9998 39.8916 26.7342 39.9976 20.1984L39.9992 20C39.9992 31.0455 31.0451 39.9996 19.9996 39.9996C8.95413 39.9996 0 31.0455 0 20L15.9997 20C15.9997 26.6273 21.3722 31.9998 27.9994 31.9998Z" fill="url(#paint0_linear)"/>
<path fill-rule="evenodd" clip-rule="evenodd" d="M12.0006 31.9993C5.43955 31.9993 0.108376 26.7337 0.00240707 20.1979L0.000797272 19.9995C0.000797272 31.045 8.95493 39.9991 20.0004 39.9991C31.0459 39.9991 40 31.045 40 19.9995L24.0003 19.9995C24.0003 26.6268 18.6278 31.9993 12.0006 31.9993Z" fill="url(#paint1_linear)"/>
<path fill-rule="evenodd" clip-rule="evenodd" d="M12.0006 7.99975C5.43955 7.99975 0.108376 13.2653 0.00240707 19.8011L0.000797272 19.9995C0.000797272 8.95404 8.95493 -8.96454e-05 20.0004 -8.96454e-05C31.0459 -8.96454e-05 40 8.95404 40 19.9995L24.0003 19.9995C24.0003 13.3722 18.6278 7.99975 12.0006 7.99975Z" fill="url(#paint2_linear)"/>
<path fill-rule="evenodd" clip-rule="evenodd" d="M27.9994 8.00024C34.5605 8.00024 39.8916 13.2658 39.9976 19.8016L39.9992 20C39.9992 8.95453 31.0451 0.000398636 19.9996 0.000398636C8.95413 0.000398636 0 8.95453 0 20L15.9997 20C15.9997 13.3727 21.3722 8.00024 27.9994 8.00024Z" fill="url(#paint3_linear)"/>
<defs>
<linearGradient id="paint0_linear" x1="8.74982" y1="20" x2="9.37481" y2="39.9996" gradientUnits="userSpaceOnUse">
<stop stop-color="#EF9146"/>
<stop offset="1" stop-color="#E0592E"/>
</linearGradient>
<linearGradient id="paint1_linear" x1="20.0004" y1="19.9995" x2="20.0004" y2="39.9991" gradientUnits="userSpaceOnUse">
<stop stop-color="#E57722"/>
<stop offset="1" stop-color="#F2B24C"/>
</linearGradient>
<linearGradient id="paint2_linear" x1="29.3587" y1="19.9995" x2="29.3587" y2="-0.84913" gradientUnits="userSpaceOnUse">
<stop stop-color="#E57722"/>
<stop offset="1" stop-color="#DD4A33"/>
</linearGradient>
<linearGradient id="paint3_linear" x1="8.12484" y1="20" x2="8.12484" y2="0.000398857" gradientUnits="userSpaceOnUse">
<stop stop-color="#EF9046"/>
<stop offset="1" stop-color="#F3C44F"/>
</linearGradient>
</defs>
</svg>
